# xmcd
#
# Track frame offsets: 
#        150
#        2594
#        20317
#        38205
#        55908
#        72528
#        75701
#        98414
#        112506
#        115885
#        150137
#        155139
#        181529
#        207482
#        229845
#        255258
#
# Disc length: 3418 seconds
#
# Revision: 2
# Processed by: cddbd v1.5.2PL0 Copyright (c) Steve Scherf et al.
# Submitted via: ExactAudioCopyFreeDBPlugin 1.0
#
DISCID=b30d5810
DTITLE=Madlib - Shades of Blue
DYEAR=2003
DGENRE=Jazz
TTITLE0=Intro
TTITLE1=Slim's Return
TTITLE2=Distant Land
TTITLE3=Mystic Bounce
TTITLE4=Stormy
TTITLE5=Interlude
TTITLE6=Please Set Me at Ease
TTITLE7=Funky Blue Note
TTITLE8=Alfred Lion Interlude
TTITLE9=Stepping into Tomorrow
TTITLE10=Anderw Hill Break
TTITLE11=Montara
TTITLE12=Song for My Father
TTITLE13=Footprints
TTITLE14=Peace, Dolphin Dance
TTITLE15=Outro
EXTD=YEAR: 2003
EXTT0=
EXTT1=
EXTT2=
EXTT3=
EXTT4=
EXTT5=
EXTT6=
EXTT7=
EXTT8=
EXTT9=
EXTT10=
EXTT11=
EXTT12=
EXTT13=
EXTT14=
EXTT15=
PLAYORDER=
